<svg width="35" height="35" viewBox="0 0 35 35" fill="none" xmlns="http://www.w3.org/2000/svg">
<path d="M34.4526 32.2656V2.73438H0.546387V32.2656H34.4526Z" fill="url(#paint0_linear)"/>
<path d="M34.4526 32.2656V31.1719H0.546387V32.2656H34.4526Z" fill="#C7CDD8"/>
<path d="M34.4526 2.73438H0.546387V7.10938H34.4526V2.73438Z" fill="url(#paint1_linear)"/>
<path d="M3.82812 4.92188C3.82812 5.06692 3.77051 5.20601 3.66795 5.30857C3.56539 5.41113 3.42629 5.46875 3.28125 5.46875C3.13621 5.46875 2.99711 5.41113 2.89455 5.30857C2.79199 5.20601 2.73438 5.06692 2.73438 4.92188C2.73438 4.77683 2.79199 4.63774 2.89455 4.53518C2.99711 4.43262 3.13621 4.375 3.28125 4.375C3.42629 4.375 3.56539 4.43262 3.66795 4.53518C3.77051 4.63774 3.82812 4.77683 3.82812 4.92188V4.92188Z" fill="#CF4055"/>
<path d="M6.5625 4.92188C6.5625 5.06692 6.50488 5.20601 6.40232 5.30857C6.29976 5.41113 6.16067 5.46875 6.01562 5.46875C5.87058 5.46875 5.73149 5.41113 5.62893 5.30857C5.52637 5.20601 5.46875 5.06692 5.46875 4.92188C5.46875 4.77683 5.52637 4.63774 5.62893 4.53518C5.73149 4.43262 5.87058 4.375 6.01562 4.375C6.16067 4.375 6.29976 4.43262 6.40232 4.53518C6.50488 4.63774 6.5625 4.77683 6.5625 4.92188V4.92188Z" fill="#F6B756"/>
<path d="M9.29712 4.92188C9.29712 5.06692 9.2395 5.20601 9.13694 5.30857C9.03438 5.41113 8.89528 5.46875 8.75024 5.46875C8.6052 5.46875 8.4661 5.41113 8.36355 5.30857C8.26099 5.20601 8.20337 5.06692 8.20337 4.92188C8.20337 4.77683 8.26099 4.63774 8.36355 4.53518C8.4661 4.43262 8.6052 4.375 8.75024 4.375C8.89528 4.375 9.03438 4.43262 9.13694 4.53518C9.2395 4.63774 9.29712 4.77683 9.29712 4.92188V4.92188Z" fill="#7ECE67"/>
<path d="M34.4534 7.10938H19.1409V32.2656H34.4534V7.10938Z" fill="url(#paint2_linear)"/>
<path d="M18.0469 34.4531V0.546875C18.0469 0.401835 18.1045 0.262735 18.207 0.160176C18.3096 0.057617 18.4487 0 18.5937 0C18.7388 0 18.8779 0.057617 18.9804 0.160176C19.083 0.262735 19.1406 0.401835 19.1406 0.546875V34.4531C19.1406 34.5982 19.083 34.7373 18.9804 34.8398C18.8779 34.9424 18.7388 35 18.5937 35C18.4487 35 18.3096 34.9424 18.207 34.8398C18.1045 34.7373 18.0469 34.5982 18.0469 34.4531Z" fill="#F6B756"/>
<path d="M3.28125 14.7656L15.8594 14.7656V9.84375L3.28125 9.84375V14.7656Z" fill="url(#paint3_linear)"/>
<path d="M3.28125 14.7656L15.8594 14.7656V13.6719L3.28125 13.6719V14.7656Z" fill="#5B8DC9"/>
<path d="M14.4922 20.2344C15.2473 20.2344 15.8594 19.6223 15.8594 18.8672C15.8594 18.1121 15.2473 17.5 14.4922 17.5C13.7371 17.5 13.125 18.1121 13.125 18.8672C13.125 19.6223 13.7371 20.2344 14.4922 20.2344Z" fill="url(#paint4_linear)"/>
<path d="M9.57056 20.2344C10.3256 20.2344 10.9377 19.6223 10.9377 18.8672C10.9377 18.1121 10.3256 17.5 9.57056 17.5C8.81548 17.5 8.20337 18.1121 8.20337 18.8672C8.20337 19.6223 8.81548 20.2344 9.57056 20.2344Z" fill="url(#paint5_linear)"/>
<path d="M4.64844 20.2344C5.40351 20.2344 6.01562 19.6223 6.01562 18.8672C6.01562 18.1121 5.40351 17.5 4.64844 17.5C3.89336 17.5 3.28125 18.1121 3.28125 18.8672C3.28125 19.6223 3.89336 20.2344 4.64844 20.2344Z" fill="url(#paint6_linear)"/>
<path d="M15.8594 22.9688H13.125C12.98 22.9688 12.8409 22.9111 12.7383 22.8086C12.6357 22.706 12.5781 22.5669 12.5781 22.4219C12.5781 22.2768 12.6357 22.1377 12.7383 22.0352C12.8409 21.9326 12.98 21.875 13.125 21.875H15.8594C16.0044 21.875 16.1435 21.9326 16.2461 22.0352C16.3486 22.1377 16.4063 22.2768 16.4063 22.4219C16.4063 22.5669 16.3486 22.706 16.2461 22.8086C16.1435 22.9111 16.0044 22.9688 15.8594 22.9688Z" fill="#9CA0AD"/>
<path d="M15.8594 25.1562H13.125C12.98 25.1562 12.8409 25.0986 12.7383 24.9961C12.6357 24.8935 12.5781 24.7544 12.5781 24.6094C12.5781 24.4643 12.6357 24.3252 12.7383 24.2227C12.8409 24.1201 12.98 24.0625 13.125 24.0625H15.8594C16.0044 24.0625 16.1435 24.1201 16.2461 24.2227C16.3486 24.3252 16.4063 24.4643 16.4063 24.6094C16.4063 24.7544 16.3486 24.8935 16.2461 24.9961C16.1435 25.0986 16.0044 25.1562 15.8594 25.1562Z" fill="#9CA0AD"/>
<path d="M10.9377 22.9688H8.20337C8.05833 22.9688 7.91923 22.9111 7.81667 22.8086C7.71411 22.706 7.65649 22.5669 7.65649 22.4219C7.65649 22.2768 7.71411 22.1377 7.81667 22.0352C7.91923 21.9326 8.05833 21.875 8.20337 21.875H10.9377C11.0828 21.875 11.2219 21.9326 11.3244 22.0352C11.427 22.1377 11.4846 22.2768 11.4846 22.4219C11.4846 22.5669 11.427 22.706 11.3244 22.8086C11.2219 22.9111 11.0828 22.9688 10.9377 22.9688Z" fill="#9CA0AD"/>
<path d="M10.9377 25.1562H8.20337C8.05833 25.1562 7.91923 25.0986 7.81667 24.9961C7.71411 24.8935 7.65649 24.7544 7.65649 24.6094C7.65649 24.4643 7.71411 24.3252 7.81667 24.2227C7.91923 24.1201 8.05833 24.0625 8.20337 24.0625H10.9377C11.0828 24.0625 11.2219 24.1201 11.3244 24.2227C11.427 24.3252 11.4846 24.4643 11.4846 24.6094C11.4846 24.7544 11.427 24.8935 11.3244 24.9961C11.2219 25.0986 11.0828 25.1562 10.9377 25.1562Z" fill="#9CA0AD"/>
<path d="M6.01563 22.9688H3.28125C3.13621 22.9688 2.99711 22.9111 2.89455 22.8086C2.79199 22.706 2.73438 22.5669 2.73438 22.4219C2.73438 22.2768 2.79199 22.1377 2.89455 22.0352C2.99711 21.9326 3.13621 21.875 3.28125 21.875H6.01563C6.16067 21.875 6.29977 21.9326 6.40232 22.0352C6.50488 22.1377 6.5625 22.2768 6.5625 22.4219C6.5625 22.5669 6.50488 22.706 6.40232 22.8086C6.29977 22.9111 6.16067 22.9688 6.01563 22.9688Z" fill="#9CA0AD"/>
<path d="M6.01563 25.1562H3.28125C3.13621 25.1562 2.99711 25.0986 2.89455 24.9961C2.79199 24.8935 2.73438 24.7544 2.73438 24.6094C2.73438 24.4643 2.79199 24.3252 2.89455 24.2227C2.99711 24.1201 3.13621 24.0625 3.28125 24.0625H6.01563C6.16067 24.0625 6.29977 24.1201 6.40232 24.2227C6.50488 24.3252 6.5625 24.4643 6.5625 24.6094C6.5625 24.7544 6.50488 24.8935 6.40232 24.9961C6.29977 25.0986 6.16067 25.1562 6.01563 25.1562Z" fill="#9CA0AD"/>
<path d="M15.8594 27.3438H3.28125V29.5312H15.8594V27.3438Z" fill="url(#paint7_linear)"/>
<path d="M22.9687 14.7657C22.6625 14.7657 22.8047 14.8313 20.393 12.4196C20.3417 12.3687 20.301 12.3082 20.2733 12.2416C20.2455 12.175 20.2312 12.1035 20.2312 12.0313C20.2312 11.9591 20.2455 11.8876 20.2733 11.821C20.301 11.7543 20.3417 11.6938 20.393 11.643L22.5805 9.45551C22.6834 9.35253 22.8231 9.29468 22.9687 9.29468C23.1144 9.29468 23.254 9.35253 23.357 9.45551C23.46 9.55849 23.5179 9.69816 23.5179 9.84379C23.5179 9.98942 23.46 10.1291 23.357 10.2321L21.5523 12.0313L23.357 13.8305C23.4341 13.907 23.4867 14.0047 23.5081 14.1112C23.5295 14.2177 23.5186 14.3282 23.477 14.4285C23.4353 14.5288 23.3648 14.6145 23.2742 14.6745C23.1837 14.7346 23.0774 14.7663 22.9687 14.7657Z" fill="#FFD39F"/>
<path d="M30.0783 14.7657C29.9696 14.7663 29.8633 14.7346 29.7728 14.6745C29.6822 14.6145 29.6117 14.5288 29.57 14.4285C29.5283 14.3282 29.5175 14.2177 29.5389 14.1112C29.5602 14.0047 29.6128 13.907 29.69 13.8305L31.4947 12.0313L29.69 10.2321C29.587 10.1291 29.5291 9.98942 29.5291 9.84379C29.5291 9.69816 29.587 9.55849 29.69 9.45551C29.793 9.35253 29.9326 9.29468 30.0783 9.29468C30.2239 9.29468 30.3636 9.35253 30.4665 9.45551L32.654 11.643C32.7053 11.6938 32.746 11.7543 32.7737 11.821C32.8015 11.8876 32.8158 11.9591 32.8158 12.0313C32.8158 12.1035 32.8015 12.175 32.7737 12.2416C32.746 12.3082 32.7053 12.3687 32.654 12.4196C30.2642 14.8094 30.3845 14.7657 30.0783 14.7657Z" fill="#FFD39F"/>
<path d="M25.1564 14.7656C25.0587 14.7658 24.9627 14.7398 24.8784 14.6903C24.7941 14.6409 24.7247 14.5697 24.6772 14.4843C24.6298 14.3989 24.6061 14.3023 24.6086 14.2046C24.6111 14.1069 24.6397 14.0117 24.6915 13.9289L27.4259 9.55386C27.5028 9.43058 27.6255 9.34288 27.767 9.31006C27.9085 9.27724 28.0573 9.30199 28.1806 9.37886C28.3039 9.45573 28.3916 9.57843 28.4244 9.71996C28.4572 9.86149 28.4325 10.0103 28.3556 10.1335C25.4517 14.7656 25.5775 14.7656 25.1564 14.7656Z" fill="#FFD39F"/>
<path d="M32.2656 18.0469H20.7812C20.6362 18.0469 20.4971 17.9893 20.3946 17.8867C20.292 17.7841 20.2344 17.645 20.2344 17.5C20.2344 17.355 20.292 17.2159 20.3946 17.1133C20.4971 17.0107 20.6362 16.9531 20.7812 16.9531H32.2656C32.4107 16.9531 32.5498 17.0107 32.6523 17.1133C32.7549 17.2159 32.8125 17.355 32.8125 17.5C32.8125 17.645 32.7549 17.7841 32.6523 17.8867C32.5498 17.9893 32.4107 18.0469 32.2656 18.0469Z" fill="#D7F1FF"/>
<path d="M28.4375 20.7812H20.7812C20.6362 20.7812 20.4971 20.7236 20.3946 20.6211C20.292 20.5185 20.2344 20.3794 20.2344 20.2344C20.2344 20.0893 20.292 19.9502 20.3946 19.8477C20.4971 19.7451 20.6362 19.6875 20.7812 19.6875H28.4375C28.5825 19.6875 28.7216 19.7451 28.8242 19.8477C28.9268 19.9502 28.9844 20.0893 28.9844 20.2344C28.9844 20.3794 28.9268 20.5185 28.8242 20.6211C28.7216 20.7236 28.5825 20.7812 28.4375 20.7812Z" fill="white"/>
<path d="M30.625 23.5156H20.7813C20.6362 23.5156 20.4971 23.458 20.3946 23.3554C20.292 23.2529 20.2344 23.1138 20.2344 22.9688C20.2344 22.8237 20.292 22.6846 20.3946 22.5821C20.4971 22.4795 20.6362 22.4219 20.7813 22.4219H30.625C30.77 22.4219 30.9091 22.4795 31.0117 22.5821C31.1143 22.6846 31.1719 22.8237 31.1719 22.9688C31.1719 23.1138 31.1143 23.2529 31.0117 23.3554C30.9091 23.458 30.77 23.5156 30.625 23.5156Z" fill="white"/>
<path d="M32.2656 26.25H20.7812C20.6362 26.25 20.4971 26.1924 20.3946 26.0898C20.292 25.9873 20.2344 25.8482 20.2344 25.7031C20.2344 25.5581 20.292 25.419 20.3946 25.3164C20.4971 25.2139 20.6362 25.1562 20.7812 25.1562H32.2656C32.4107 25.1562 32.5498 25.2139 32.6523 25.3164C32.7549 25.419 32.8125 25.5581 32.8125 25.7031C32.8125 25.8482 32.7549 25.9873 32.6523 26.0898C32.5498 26.1924 32.4107 26.25 32.2656 26.25Z" fill="#D7F1FF"/>
<path d="M29.5312 28.9844H20.7812C20.6362 28.9844 20.4971 28.9268 20.3946 28.8242C20.292 28.7216 20.2344 28.5825 20.2344 28.4375C20.2344 28.2925 20.292 28.1534 20.3946 28.0508C20.4971 27.9482 20.6362 27.8906 20.7812 27.8906H29.5312C29.6763 27.8906 29.8154 27.9482 29.9179 28.0508C30.0205 28.1534 30.0781 28.2925 30.0781 28.4375C30.0781 28.5825 30.0205 28.7216 29.9179 28.8242C29.8154 28.9268 29.6763 28.9844 29.5312 28.9844Z" fill="white"/>
<defs>
<linearGradient id="paint0_linear" x1="17.4995" y1="32.2656" x2="17.4995" y2="2.73438" gradientUnits="userSpaceOnUse">
<stop stop-color="#D4D8E1"/>
<stop offset="1" stop-color="#F3F4F5"/>
</linearGradient>
<linearGradient id="paint1_linear" x1="17.4995" y1="7.10938" x2="17.4995" y2="2.73438" gradientUnits="userSpaceOnUse">
<stop stop-color="#A0A6BA"/>
<stop offset="1" stop-color="#C6CCDA"/>
</linearGradient>
<linearGradient id="paint2_linear" x1="26.7971" y1="32.2656" x2="26.7971" y2="7.10938" gradientUnits="userSpaceOnUse">
<stop stop-color="#474F72"/>
<stop offset="1" stop-color="#878C9F"/>
</linearGradient>
<linearGradient id="paint3_linear" x1="9.57031" y1="14.7656" x2="9.57031" y2="9.84375" gradientUnits="userSpaceOnUse">
<stop stop-color="#7AA8D7"/>
<stop offset="1" stop-color="#C3D2E7"/>
</linearGradient>
<linearGradient id="paint4_linear" x1="85.586" y1="118.672" x2="85.586" y2="105" gradientUnits="userSpaceOnUse">
<stop stop-color="#7AA8D7"/>
<stop offset="1" stop-color="#C3D2E7"/>
</linearGradient>
<linearGradient id="paint5_linear" x1="56.0549" y1="118.672" x2="56.0549" y2="105" gradientUnits="userSpaceOnUse">
<stop stop-color="#7AA8D7"/>
<stop offset="1" stop-color="#C3D2E7"/>
</linearGradient>
<linearGradient id="paint6_linear" x1="26.5234" y1="118.672" x2="26.5234" y2="105" gradientUnits="userSpaceOnUse">
<stop stop-color="#7AA8D7"/>
<stop offset="1" stop-color="#C3D2E7"/>
</linearGradient>
<linearGradient id="paint7_linear" x1="78.75" y1="141.094" x2="368.047" y2="141.094" gradientUnits="userSpaceOnUse">
<stop stop-color="#A0A6BA"/>
<stop offset="1" stop-color="#C6CCDA"/>
</linearGradient>
</defs>
</svg>
